<svg width="53" height="53" viewBox="0 0 53 53" fill="none" xmlns="http://www.w3.org/2000/svg">
<path d="M19.875 6.625H8.83333C7.6137 6.625 6.625 7.6137 6.625 8.83333V19.875C6.625 21.0946 7.6137 22.0833 8.83333 22.0833H19.875C21.0946 22.0833 22.0833 21.0946 22.0833 19.875V8.83333C22.0833 7.6137 21.0946 6.625 19.875 6.625Z" stroke="#FFD143" stroke-width="5" stroke-linecap="round" stroke-linejoin="round"/>
<path d="M19.875 30.9167H8.83333C7.6137 30.9167 6.625 31.9054 6.625 33.125V44.1667C6.625 45.3863 7.6137 46.375 8.83333 46.375H19.875C21.0946 46.375 22.0833 45.3863 22.0833 44.1667V33.125C22.0833 31.9054 21.0946 30.9167 19.875 30.9167Z" stroke="#FFD143" stroke-width="5" stroke-linecap="round" stroke-linejoin="round"/>
<path d="M44.1667 6.625H33.125C31.9054 6.625 30.9167 7.6137 30.9167 8.83333V19.875C30.9167 21.0946 31.9054 22.0833 33.125 22.0833H44.1667C45.3863 22.0833 46.375 21.0946 46.375 19.875V8.83333C46.375 7.6137 45.3863 6.625 44.1667 6.625Z" stroke="#FFD143" stroke-width="5" stroke-linecap="round" stroke-linejoin="round"/>
<path d="M44.1667 30.9167H33.125C31.9054 30.9167 30.9167 31.9054 30.9167 33.125V44.1667C30.9167 45.3863 31.9054 46.375 33.125 46.375H44.1667C45.3863 46.375 46.375 45.3863 46.375 44.1667V33.125C46.375 31.9054 45.3863 30.9167 44.1667 30.9167Z" stroke="#FFD143" stroke-width="5" stroke-linecap="round" stroke-linejoin="round"/>
</svg>
