<svg width="660" height="197" viewBox="0 0 660 197" fill="none" xmlns="http://www.w3.org/2000/svg">
<path fill-rule="evenodd" clip-rule="evenodd" d="M0 82.0833H20.7059V197H0V82.0833Z" fill="#F8ECC9"/>
<path fill-rule="evenodd" clip-rule="evenodd" d="M28.4706 26.2667H49.1765V197H28.4706V26.2667Z" fill="#F8ECC9"/>
<path fill-rule="evenodd" clip-rule="evenodd" d="M58.2353 52.5333H78.9412V197H58.2353V52.5333Z" fill="#F8ECC9"/>
<path fill-rule="evenodd" clip-rule="evenodd" d="M116.471 82.0833H137.176V197H116.471V82.0833Z" fill="#F8ECC9"/>
<path fill-rule="evenodd" clip-rule="evenodd" d="M144.941 98.5H165.647V197H144.941V98.5Z" fill="#F8ECC9"/>
<path fill-rule="evenodd" clip-rule="evenodd" d="M174.706 52.5333H195.412V197H174.706V52.5333Z" fill="#F8ECC9"/>
<path fill-rule="evenodd" clip-rule="evenodd" d="M203.176 108.35H223.882V197H203.176V108.35Z" fill="#F8ECC9"/>
<path fill-rule="evenodd" clip-rule="evenodd" d="M86.7059 108.35H107.412V197H86.7059V108.35Z" fill="#F8ECC9"/>
<path fill-rule="evenodd" clip-rule="evenodd" d="M232.941 82.0833H253.647V197H232.941V82.0833Z" fill="#F8ECC9"/>
<path fill-rule="evenodd" clip-rule="evenodd" d="M261.412 26.2667H282.118V197H261.412V26.2667Z" fill="#F8ECC9"/>
<path fill-rule="evenodd" clip-rule="evenodd" d="M291.176 52.5333H311.882V197H291.176V52.5333Z" fill="#F8ECC9"/>
<path fill-rule="evenodd" clip-rule="evenodd" d="M348.118 82.0833H368.824V197H348.118V82.0833Z" fill="#F8ECC9"/>
<path fill-rule="evenodd" clip-rule="evenodd" d="M377.882 98.5H398.588V197H377.882V98.5Z" fill="#F8ECC9"/>
<path fill-rule="evenodd" clip-rule="evenodd" d="M406.353 52.5333H427.059V197H406.353V52.5333Z" fill="#F8ECC9"/>
<path fill-rule="evenodd" clip-rule="evenodd" d="M436.118 108.35H456.824V197H436.118V108.35Z" fill="#F8ECC9"/>
<path fill-rule="evenodd" clip-rule="evenodd" d="M319.647 108.35H340.353V197H319.647V108.35Z" fill="#F8ECC9"/>
<path fill-rule="evenodd" clip-rule="evenodd" d="M464.588 82.0833H485.294V197H464.588V82.0833Z" fill="#F8ECC9"/>
<path fill-rule="evenodd" clip-rule="evenodd" d="M494.353 26.2667H515.059V197H494.353V26.2667Z" fill="#F8ECC9"/>
<path fill-rule="evenodd" clip-rule="evenodd" d="M522.824 52.5333H543.529V197H522.824V52.5333Z" fill="#F8ECC9"/>
<path fill-rule="evenodd" clip-rule="evenodd" d="M581.059 82.0833H601.765V197H581.059V82.0833Z" fill="#F8ECC9"/>
<path fill-rule="evenodd" clip-rule="evenodd" d="M610.824 0H631.529V197H610.824V0Z" fill="#FFD143"/>
<path fill-rule="evenodd" clip-rule="evenodd" d="M639.294 52.5333H660V197H639.294V52.5333Z" fill="#F8ECC9"/>
<path fill-rule="evenodd" clip-rule="evenodd" d="M552.588 108.35H573.294V197H552.588V108.35Z" fill="#F8ECC9"/>
</svg>
