<svg width="51" height="51" viewBox="0 0 51 51" fill="none" xmlns="http://www.w3.org/2000/svg">
<g opacity="0.5">
<path d="M40.375 4.25H12.75C10.1873 4.25 6.375 5.94788 6.375 10.625V40.375C6.375 45.0521 10.1873 46.75 12.75 46.75H44.625V42.5H12.7755C11.7938 42.4745 10.625 42.0877 10.625 40.375C10.625 40.1604 10.6441 39.9691 10.676 39.7949C10.914 38.5709 11.917 38.2713 12.7755 38.25H44.625V8.5C44.625 7.37283 44.1772 6.29183 43.3802 5.4948C42.5832 4.69777 41.5022 4.25 40.375 4.25ZM40.375 23.375L36.125 21.25L31.875 23.375V8.5H40.375V23.375Z" fill="black"/>
</g>
</svg>
