<svg width="53" height="53" viewBox="0 0 53 53" fill="none" xmlns="http://www.w3.org/2000/svg">
<path d="M36.3801 11.9427L41.0573 16.6177L36.3801 11.9427ZM39.3878 7.82412L26.7407 20.4712C26.0872 21.1238 25.6416 21.9552 25.4599 22.8607L24.2917 28.7083L30.1393 27.5379C31.0448 27.3568 31.8751 26.913 32.5288 26.2593L45.1759 13.6122C45.5559 13.2321 45.8574 12.7809 46.0631 12.2844C46.2688 11.7878 46.3746 11.2556 46.3746 10.7181C46.3746 10.1807 46.2688 9.64847 46.0631 9.15191C45.8574 8.65535 45.5559 8.20417 45.1759 7.82412C44.7958 7.44408 44.3447 7.14261 43.8481 6.93692C43.3515 6.73124 42.8193 6.62538 42.2819 6.62538C41.7444 6.62538 41.2122 6.73124 40.7156 6.93692C40.2191 7.14261 39.7679 7.44408 39.3878 7.82412V7.82412Z" stroke="#FFD143" stroke-width="5" stroke-linecap="round" stroke-linejoin="round"/>
<path d="M41.9583 33.125V39.75C41.9583 40.9214 41.493 42.0448 40.6647 42.8731C39.8364 43.7013 38.713 44.1667 37.5417 44.1667H13.25C12.0786 44.1667 10.9552 43.7013 10.1269 42.8731C9.29866 42.0448 8.83334 40.9214 8.83334 39.75V15.4583C8.83334 14.287 9.29866 13.1636 10.1269 12.3353C10.9552 11.507 12.0786 11.0417 13.25 11.0417H19.875" stroke="#FFD143" stroke-width="5" stroke-linecap="round" stroke-linejoin="round"/>
</svg>
